<mxfile host="app.diagrams.net" modified="2022-04-21T07:11:17.970Z" agent="5.0 (Windows NT 10.0; Win64; x64) AppleWebKit/537.36 (KHTML, like Gecko) Chrome/100.0.4896.127 Safari/537.36" etag="QWmYOLLOfFhiZjnyLwbf" version="17.2.4" type="github">
  <diagram id="jhGQhCQuHQYNfOVaKk4t" name="Page-1">
    <mxGraphModel dx="1778" dy="953" grid="1" gridSize="10" guides="1" tooltips="1" connect="1" arrows="1" fold="1" page="1" pageScale="1" pageWidth="850" pageHeight="1100" math="0" shadow="0">
      <root>
        <mxCell id="0" />
        <mxCell id="1" parent="0" />
        <mxCell id="OWM73IptP0_KArOeakQF-31" value="Make an Insurance Plan" style="shape=table;startSize=60;container=1;collapsible=0;childLayout=tableLayout;fontStyle=1;align=center;fontSize=18;strokeWidth=2;" parent="1" vertex="1">
          <mxGeometry x="60" y="48" width="1480" height="1580" as="geometry" />
        </mxCell>
        <mxCell id="OWM73IptP0_KArOeakQF-32" value="" style="shape=tableRow;horizontal=0;startSize=0;swimlaneHead=0;swimlaneBody=0;top=0;left=0;bottom=0;right=0;collapsible=0;dropTarget=0;fillColor=none;points=[[0,0.5],[1,0.5]];portConstraint=eastwest;" parent="OWM73IptP0_KArOeakQF-31" vertex="1">
          <mxGeometry y="60" width="1480" height="67" as="geometry" />
        </mxCell>
        <mxCell id="OWM73IptP0_KArOeakQF-60" value="&lt;b&gt;&lt;font style=&quot;font-size: 19px&quot;&gt;Visitor&lt;/font&gt;&lt;/b&gt;" style="shape=partialRectangle;html=1;whiteSpace=wrap;connectable=0;fillColor=none;top=0;left=0;bottom=0;right=0;overflow=hidden;" parent="OWM73IptP0_KArOeakQF-32" vertex="1">
          <mxGeometry width="459" height="67" as="geometry">
            <mxRectangle width="459" height="67" as="alternateBounds" />
          </mxGeometry>
        </mxCell>
        <mxCell id="OWM73IptP0_KArOeakQF-33" value="&lt;b&gt;&lt;font style=&quot;font-size: 18px&quot;&gt;Security analyst&lt;/font&gt;&lt;/b&gt;" style="shape=partialRectangle;html=1;whiteSpace=wrap;connectable=0;fillColor=none;top=0;left=0;bottom=0;right=0;overflow=hidden;" parent="OWM73IptP0_KArOeakQF-32" vertex="1">
          <mxGeometry x="459" width="412" height="67" as="geometry">
            <mxRectangle width="412" height="67" as="alternateBounds" />
          </mxGeometry>
        </mxCell>
        <mxCell id="OWM73IptP0_KArOeakQF-34" value="&lt;b&gt;&lt;font style=&quot;font-size: 18px&quot;&gt;Decision Manager&lt;/font&gt;&lt;/b&gt;" style="shape=partialRectangle;html=1;whiteSpace=wrap;connectable=0;fillColor=none;top=0;left=0;bottom=0;right=0;overflow=hidden;" parent="OWM73IptP0_KArOeakQF-32" vertex="1">
          <mxGeometry x="871" width="342" height="67" as="geometry">
            <mxRectangle width="342" height="67" as="alternateBounds" />
          </mxGeometry>
        </mxCell>
        <mxCell id="OWM73IptP0_KArOeakQF-35" value="&lt;b&gt;&lt;font style=&quot;font-size: 18px&quot;&gt;Sales Director&lt;/font&gt;&lt;/b&gt;" style="shape=partialRectangle;html=1;whiteSpace=wrap;connectable=0;fillColor=none;top=0;left=0;bottom=0;right=0;overflow=hidden;" parent="OWM73IptP0_KArOeakQF-32" vertex="1">
          <mxGeometry x="1213" width="267" height="67" as="geometry">
            <mxRectangle width="267" height="67" as="alternateBounds" />
          </mxGeometry>
        </mxCell>
        <mxCell id="OWM73IptP0_KArOeakQF-40" value="" style="shape=tableRow;horizontal=0;startSize=0;swimlaneHead=0;swimlaneBody=0;top=0;left=0;bottom=0;right=0;collapsible=0;dropTarget=0;fillColor=none;points=[[0,0.5],[1,0.5]];portConstraint=eastwest;" parent="OWM73IptP0_KArOeakQF-31" vertex="1">
          <mxGeometry y="127" width="1480" height="1453" as="geometry" />
        </mxCell>
        <mxCell id="OWM73IptP0_KArOeakQF-61" style="shape=partialRectangle;html=1;whiteSpace=wrap;connectable=0;fillColor=none;top=0;left=0;bottom=0;right=0;overflow=hidden;" parent="OWM73IptP0_KArOeakQF-40" vertex="1">
          <mxGeometry width="459" height="1453" as="geometry">
            <mxRectangle width="459" height="1453" as="alternateBounds" />
          </mxGeometry>
        </mxCell>
        <mxCell id="OWM73IptP0_KArOeakQF-41" value="" style="shape=partialRectangle;html=1;whiteSpace=wrap;connectable=0;fillColor=none;top=0;left=0;bottom=0;right=0;overflow=hidden;" parent="OWM73IptP0_KArOeakQF-40" vertex="1">
          <mxGeometry x="459" width="412" height="1453" as="geometry">
            <mxRectangle width="412" height="1453" as="alternateBounds" />
          </mxGeometry>
        </mxCell>
        <mxCell id="OWM73IptP0_KArOeakQF-42" value="" style="shape=partialRectangle;html=1;whiteSpace=wrap;connectable=0;fillColor=none;top=0;left=0;bottom=0;right=0;overflow=hidden;" parent="OWM73IptP0_KArOeakQF-40" vertex="1">
          <mxGeometry x="871" width="342" height="1453" as="geometry">
            <mxRectangle width="342" height="1453" as="alternateBounds" />
          </mxGeometry>
        </mxCell>
        <mxCell id="OWM73IptP0_KArOeakQF-43" value="" style="shape=partialRectangle;html=1;whiteSpace=wrap;connectable=0;fillColor=none;top=0;left=0;bottom=0;right=0;overflow=hidden;" parent="OWM73IptP0_KArOeakQF-40" vertex="1">
          <mxGeometry x="1213" width="267" height="1453" as="geometry">
            <mxRectangle width="267" height="1453" as="alternateBounds" />
          </mxGeometry>
        </mxCell>
        <mxCell id="OWM73IptP0_KArOeakQF-65" value="" style="ellipse;html=1;shape=endState;fillColor=#000000;strokeColor=#ff0000;" parent="1" vertex="1">
          <mxGeometry x="215" y="200" width="30" height="30" as="geometry" />
        </mxCell>
        <mxCell id="OWM73IptP0_KArOeakQF-66" value="&lt;b&gt;&lt;font style=&quot;font-size: 15px&quot;&gt;Login&lt;/font&gt;&lt;/b&gt;" style="rounded=1;whiteSpace=wrap;html=1;arcSize=40;fontColor=#000000;fillColor=#ffffc0;strokeColor=#ff0000;" parent="1" vertex="1">
          <mxGeometry x="160" y="260" width="160" height="60" as="geometry" />
        </mxCell>
        <mxCell id="OWM73IptP0_KArOeakQF-67" value="" style="edgeStyle=orthogonalEdgeStyle;html=1;verticalAlign=bottom;endArrow=open;endSize=8;strokeColor=#ff0000;rounded=0;exitX=0.5;exitY=1;exitDx=0;exitDy=0;" parent="1" source="OWM73IptP0_KArOeakQF-65" edge="1">
          <mxGeometry relative="1" as="geometry">
            <mxPoint x="230" y="260" as="targetPoint" />
            <mxPoint x="575" y="370" as="sourcePoint" />
          </mxGeometry>
        </mxCell>
        <mxCell id="OWM73IptP0_KArOeakQF-68" value="&amp;nbsp;" style="rhombus;whiteSpace=wrap;html=1;fillColor=#ffffc0;strokeColor=#ff0000;" parent="1" vertex="1">
          <mxGeometry x="692" y="237.5" width="118" height="95" as="geometry" />
        </mxCell>
        <mxCell id="OWM73IptP0_KArOeakQF-69" value="&lt;b&gt;&lt;font style=&quot;font-size: 14px&quot;&gt;Login Error&lt;/font&gt;&lt;/b&gt;" style="rounded=1;whiteSpace=wrap;html=1;arcSize=40;fontColor=#000000;fillColor=#ffffc0;strokeColor=#ff0000;" parent="1" vertex="1">
          <mxGeometry x="672" y="370" width="120" height="40" as="geometry" />
        </mxCell>
        <mxCell id="OWM73IptP0_KArOeakQF-70" value="&lt;b&gt;&lt;font style=&quot;font-size: 14px&quot;&gt;Directed Home Page&lt;/font&gt;&lt;/b&gt;" style="rounded=1;whiteSpace=wrap;html=1;arcSize=40;fontColor=#000000;fillColor=#ffffc0;strokeColor=#ff0000;" parent="1" vertex="1">
          <mxGeometry x="1050" y="260" width="160" height="50" as="geometry" />
        </mxCell>
        <mxCell id="OWM73IptP0_KArOeakQF-89" value="" style="shape=line;html=1;strokeWidth=6;strokeColor=#ff0000;" parent="1" vertex="1">
          <mxGeometry x="170" y="670" width="200" height="10" as="geometry" />
        </mxCell>
        <mxCell id="OWM73IptP0_KArOeakQF-90" value="" style="edgeStyle=orthogonalEdgeStyle;html=1;verticalAlign=bottom;endArrow=open;endSize=8;strokeColor=#ff0000;rounded=0;exitX=0.603;exitY=0.469;exitDx=0;exitDy=0;exitPerimeter=0;entryX=0.5;entryY=0;entryDx=0;entryDy=0;strokeWidth=2;" parent="1" source="OWM73IptP0_KArOeakQF-89" target="OWM73IptP0_KArOeakQF-94" edge="1">
          <mxGeometry relative="1" as="geometry">
            <mxPoint x="350" y="710" as="targetPoint" />
            <Array as="points">
              <mxPoint x="301" y="690" />
              <mxPoint x="340" y="690" />
            </Array>
          </mxGeometry>
        </mxCell>
        <mxCell id="OWM73IptP0_KArOeakQF-91" value="&amp;nbsp;" style="rhombus;whiteSpace=wrap;html=1;fillColor=#ffffc0;strokeColor=#ff0000;" parent="1" vertex="1">
          <mxGeometry x="230" y="600" width="110" height="50" as="geometry" />
        </mxCell>
        <mxCell id="OWM73IptP0_KArOeakQF-92" value="&lt;b&gt;&lt;font style=&quot;font-size: 13px&quot;&gt;Select Insurance Time Period&lt;/font&gt;&lt;/b&gt;" style="rounded=1;whiteSpace=wrap;html=1;arcSize=40;fontColor=#000000;fillColor=#ffffc0;strokeColor=#ff0000;" parent="1" vertex="1">
          <mxGeometry x="70" y="720" width="90" height="60" as="geometry" />
        </mxCell>
        <mxCell id="OWM73IptP0_KArOeakQF-93" value="&lt;b&gt;&lt;font style=&quot;font-size: 13px&quot;&gt;Select Insurance Type&lt;/font&gt;&lt;/b&gt;" style="rounded=1;whiteSpace=wrap;html=1;arcSize=40;fontColor=#000000;fillColor=#ffffc0;strokeColor=#ff0000;" parent="1" vertex="1">
          <mxGeometry x="170" y="720" width="90" height="60" as="geometry" />
        </mxCell>
        <mxCell id="OWM73IptP0_KArOeakQF-94" value="&lt;font style=&quot;font-size: 13px&quot;&gt;&lt;b&gt;Select Minimum Price&lt;/b&gt;&lt;/font&gt;" style="rounded=1;whiteSpace=wrap;html=1;arcSize=40;fontColor=#000000;fillColor=#ffffc0;strokeColor=#ff0000;" parent="1" vertex="1">
          <mxGeometry x="275" y="720" width="80" height="60" as="geometry" />
        </mxCell>
        <mxCell id="OWM73IptP0_KArOeakQF-95" value="&lt;b&gt;&lt;font style=&quot;font-size: 13px&quot;&gt;Select Maximum Price&lt;/font&gt;&lt;/b&gt;" style="rounded=1;whiteSpace=wrap;html=1;arcSize=40;fontColor=#000000;fillColor=#ffffc0;strokeColor=#ff0000;" parent="1" vertex="1">
          <mxGeometry x="380" y="725" width="80" height="50" as="geometry" />
        </mxCell>
        <mxCell id="OWM73IptP0_KArOeakQF-96" value="" style="edgeStyle=orthogonalEdgeStyle;html=1;verticalAlign=bottom;endArrow=open;endSize=8;strokeColor=#ff0000;rounded=0;exitX=0.5;exitY=1;exitDx=0;exitDy=0;entryX=0.502;entryY=0.448;entryDx=0;entryDy=0;entryPerimeter=0;strokeWidth=2;" parent="1" source="OWM73IptP0_KArOeakQF-91" target="OWM73IptP0_KArOeakQF-89" edge="1">
          <mxGeometry relative="1" as="geometry">
            <mxPoint x="220" y="675" as="targetPoint" />
            <mxPoint x="310" y="590.0000000000001" as="sourcePoint" />
            <Array as="points">
              <mxPoint x="270" y="674" />
            </Array>
          </mxGeometry>
        </mxCell>
        <mxCell id="OWM73IptP0_KArOeakQF-97" value="" style="edgeStyle=orthogonalEdgeStyle;html=1;verticalAlign=bottom;endArrow=open;endSize=8;strokeColor=#ff0000;rounded=0;exitX=0.403;exitY=0.538;exitDx=0;exitDy=0;exitPerimeter=0;strokeWidth=2;" parent="1" source="OWM73IptP0_KArOeakQF-89" target="OWM73IptP0_KArOeakQF-93" edge="1">
          <mxGeometry relative="1" as="geometry">
            <mxPoint x="360" y="620.0000000000001" as="targetPoint" />
            <mxPoint x="360" y="590.0000000000001" as="sourcePoint" />
            <Array as="points">
              <mxPoint x="240" y="675" />
              <mxPoint x="240" y="690" />
              <mxPoint x="200" y="690" />
            </Array>
          </mxGeometry>
        </mxCell>
        <mxCell id="OWM73IptP0_KArOeakQF-98" value="" style="edgeStyle=orthogonalEdgeStyle;html=1;verticalAlign=bottom;endArrow=open;endSize=8;strokeColor=#ff0000;rounded=0;exitX=0.052;exitY=0.633;exitDx=0;exitDy=0;exitPerimeter=0;strokeWidth=2;" parent="1" source="OWM73IptP0_KArOeakQF-89" edge="1">
          <mxGeometry relative="1" as="geometry">
            <mxPoint x="120" y="720" as="targetPoint" />
            <mxPoint x="119.98999999999978" y="675.38" as="sourcePoint" />
            <Array as="points">
              <mxPoint x="180" y="700" />
              <mxPoint x="120" y="700" />
              <mxPoint x="120" y="720" />
            </Array>
          </mxGeometry>
        </mxCell>
        <mxCell id="OWM73IptP0_KArOeakQF-99" value="" style="edgeStyle=orthogonalEdgeStyle;html=1;verticalAlign=bottom;endArrow=open;endSize=8;strokeColor=#ff0000;rounded=0;exitX=0.937;exitY=0.522;exitDx=0;exitDy=0;exitPerimeter=0;entryX=0.5;entryY=0;entryDx=0;entryDy=0;strokeWidth=2;" parent="1" source="OWM73IptP0_KArOeakQF-89" target="OWM73IptP0_KArOeakQF-95" edge="1">
          <mxGeometry relative="1" as="geometry">
            <mxPoint x="480" y="740" as="targetPoint" />
            <mxPoint x="310.5999999999999" y="684.69" as="sourcePoint" />
            <Array as="points">
              <mxPoint x="357" y="700" />
              <mxPoint x="420" y="700" />
            </Array>
          </mxGeometry>
        </mxCell>
        <mxCell id="OWM73IptP0_KArOeakQF-100" value="" style="shape=line;html=1;strokeWidth=6;strokeColor=#ff0000;" parent="1" vertex="1">
          <mxGeometry x="168" y="843" width="200" height="10" as="geometry" />
        </mxCell>
        <mxCell id="OWM73IptP0_KArOeakQF-101" value="" style="edgeStyle=orthogonalEdgeStyle;html=1;verticalAlign=bottom;endArrow=open;endSize=8;strokeColor=#ff0000;rounded=0;exitX=0.5;exitY=1;exitDx=0;exitDy=0;entryX=0.06;entryY=0.416;entryDx=0;entryDy=0;entryPerimeter=0;strokeWidth=2;" parent="1" source="OWM73IptP0_KArOeakQF-92" target="OWM73IptP0_KArOeakQF-100" edge="1">
          <mxGeometry relative="1" as="geometry">
            <mxPoint x="180" y="820" as="targetPoint" />
            <mxPoint x="190.4000000000001" y="686.3300000000002" as="sourcePoint" />
            <Array as="points">
              <mxPoint x="100" y="810" />
              <mxPoint x="180" y="810" />
            </Array>
          </mxGeometry>
        </mxCell>
        <mxCell id="OWM73IptP0_KArOeakQF-102" value="" style="edgeStyle=orthogonalEdgeStyle;html=1;verticalAlign=bottom;endArrow=open;endSize=8;strokeColor=#ff0000;rounded=0;exitX=0.5;exitY=1;exitDx=0;exitDy=0;entryX=0.327;entryY=0.333;entryDx=0;entryDy=0;entryPerimeter=0;strokeWidth=2;" parent="1" source="OWM73IptP0_KArOeakQF-93" target="OWM73IptP0_KArOeakQF-100" edge="1">
          <mxGeometry relative="1" as="geometry">
            <mxPoint x="190" y="834.16" as="targetPoint" />
            <mxPoint x="70" y="790" as="sourcePoint" />
            <Array as="points">
              <mxPoint x="210" y="810" />
              <mxPoint x="233" y="810" />
            </Array>
          </mxGeometry>
        </mxCell>
        <mxCell id="OWM73IptP0_KArOeakQF-103" value="" style="edgeStyle=orthogonalEdgeStyle;html=1;verticalAlign=bottom;endArrow=open;endSize=8;strokeColor=#ff0000;rounded=0;entryX=0.712;entryY=0.4;entryDx=0;entryDy=0;entryPerimeter=0;strokeWidth=2;" parent="1" target="OWM73IptP0_KArOeakQF-100" edge="1">
          <mxGeometry relative="1" as="geometry">
            <mxPoint x="310" y="820" as="targetPoint" />
            <mxPoint x="330" y="780" as="sourcePoint" />
            <Array as="points">
              <mxPoint x="330" y="810" />
              <mxPoint x="310" y="810" />
            </Array>
          </mxGeometry>
        </mxCell>
        <mxCell id="OWM73IptP0_KArOeakQF-104" value="" style="edgeStyle=orthogonalEdgeStyle;html=1;verticalAlign=bottom;endArrow=open;endSize=8;strokeColor=#ff0000;rounded=0;exitX=0.5;exitY=1;exitDx=0;exitDy=0;entryX=0.907;entryY=0.367;entryDx=0;entryDy=0;entryPerimeter=0;strokeWidth=2;" parent="1" source="OWM73IptP0_KArOeakQF-95" target="OWM73IptP0_KArOeakQF-100" edge="1">
          <mxGeometry relative="1" as="geometry">
            <mxPoint x="350" y="820" as="targetPoint" />
            <mxPoint x="340" y="790" as="sourcePoint" />
            <Array as="points">
              <mxPoint x="410" y="810" />
              <mxPoint x="349" y="810" />
            </Array>
          </mxGeometry>
        </mxCell>
        <mxCell id="OWM73IptP0_KArOeakQF-105" value="&lt;b&gt;&lt;font style=&quot;font-size: 14px&quot;&gt;&amp;nbsp;Check Insurance Details&lt;/font&gt;&lt;/b&gt;" style="rounded=1;whiteSpace=wrap;html=1;arcSize=40;fontColor=#000000;fillColor=#ffffc0;strokeColor=#ff0000;align=left;" parent="1" vertex="1">
          <mxGeometry x="160" y="890" width="230" height="60" as="geometry" />
        </mxCell>
        <mxCell id="OWM73IptP0_KArOeakQF-106" value="" style="line;strokeWidth=2;direction=south;html=1;perimeter=backbonePerimeter;points=[];outlineConnect=0;strokeColor=#F20000;" parent="1" vertex="1">
          <mxGeometry x="345" y="905" width="10" height="35" as="geometry" />
        </mxCell>
        <mxCell id="OWM73IptP0_KArOeakQF-107" value="" style="line;strokeWidth=2;direction=west;html=1;perimeter=backbonePerimeter;points=[];outlineConnect=0;strokeColor=#F20000;" parent="1" vertex="1">
          <mxGeometry x="335" y="918" width="30" height="10" as="geometry" />
        </mxCell>
        <mxCell id="OWM73IptP0_KArOeakQF-108" value="" style="line;strokeWidth=2;direction=north;html=1;perimeter=backbonePerimeter;points=[];outlineConnect=0;strokeColor=#F20000;" parent="1" vertex="1">
          <mxGeometry x="331" y="922" width="10" height="18" as="geometry" />
        </mxCell>
        <mxCell id="OWM73IptP0_KArOeakQF-109" value="" style="line;strokeWidth=2;direction=north;html=1;perimeter=backbonePerimeter;points=[];outlineConnect=0;strokeColor=#F20000;" parent="1" vertex="1">
          <mxGeometry x="360" y="922" width="10" height="18" as="geometry" />
        </mxCell>
        <mxCell id="OWM73IptP0_KArOeakQF-110" value="" style="edgeStyle=orthogonalEdgeStyle;html=1;verticalAlign=bottom;endArrow=open;endSize=8;strokeColor=#ff0000;rounded=0;exitX=0.522;exitY=0.557;exitDx=0;exitDy=0;exitPerimeter=0;strokeWidth=2;" parent="1" source="OWM73IptP0_KArOeakQF-100" target="OWM73IptP0_KArOeakQF-105" edge="1">
          <mxGeometry relative="1" as="geometry">
            <mxPoint x="360" y="620" as="targetPoint" />
            <mxPoint x="360" y="590" as="sourcePoint" />
            <Array as="points">
              <mxPoint x="272" y="850" />
              <mxPoint x="275" y="850" />
            </Array>
          </mxGeometry>
        </mxCell>
        <mxCell id="OWM73IptP0_KArOeakQF-111" value="" style="edgeStyle=orthogonalEdgeStyle;html=1;verticalAlign=bottom;endArrow=open;endSize=8;strokeColor=#ff0000;rounded=0;exitX=0;exitY=0.5;exitDx=0;exitDy=0;entryX=1;entryY=0.5;entryDx=0;entryDy=0;strokeWidth=2;" parent="1" source="OWM73IptP0_KArOeakQF-112" target="OWM73IptP0_KArOeakQF-91" edge="1">
          <mxGeometry relative="1" as="geometry">
            <mxPoint x="320" y="625" as="targetPoint" />
            <mxPoint x="478.67999999999984" y="631" as="sourcePoint" />
            <Array as="points">
              <mxPoint x="1110" y="625" />
              <mxPoint x="1110" y="625" />
            </Array>
          </mxGeometry>
        </mxCell>
        <mxCell id="OWM73IptP0_KArOeakQF-112" value="&lt;b style=&quot;font-size: 15px&quot;&gt;Display Insurance &lt;br&gt;Not Available&lt;/b&gt;" style="rounded=1;whiteSpace=wrap;html=1;arcSize=40;fontColor=#000000;fillColor=#ffffc0;strokeColor=#ff0000;" parent="1" vertex="1">
          <mxGeometry x="1320" y="595" width="160" height="60" as="geometry" />
        </mxCell>
        <mxCell id="OWM73IptP0_KArOeakQF-113" value="&amp;nbsp;" style="rhombus;whiteSpace=wrap;html=1;fillColor=#ffffc0;strokeColor=#ff0000;" parent="1" vertex="1">
          <mxGeometry x="1040" y="922" width="140" height="66" as="geometry" />
        </mxCell>
        <mxCell id="OWM73IptP0_KArOeakQF-114" value="&lt;b&gt;&lt;font style=&quot;font-size: 16px&quot;&gt;Display Insurances Details&amp;nbsp;&lt;/font&gt;&lt;/b&gt;" style="rounded=1;whiteSpace=wrap;html=1;arcSize=40;fontColor=#000000;fillColor=#ffffc0;strokeColor=#ff0000;align=center;" parent="1" vertex="1">
          <mxGeometry x="1310" y="988" width="220" height="80" as="geometry" />
        </mxCell>
        <mxCell id="OWM73IptP0_KArOeakQF-115" value="&lt;b&gt;&lt;font style=&quot;font-size: 16px&quot;&gt;Select Insurance&lt;/font&gt;&lt;/b&gt;" style="rounded=1;whiteSpace=wrap;html=1;arcSize=40;fontColor=#000000;fillColor=#ffffc0;strokeColor=#ff0000;align=center;" parent="1" vertex="1">
          <mxGeometry x="155" y="1115" width="200" height="70" as="geometry" />
        </mxCell>
        <mxCell id="OWM73IptP0_KArOeakQF-116" value="&lt;b&gt;&lt;font style=&quot;font-size: 14px&quot;&gt;Display Terms and Condition&lt;/font&gt;&lt;/b&gt;" style="rounded=1;whiteSpace=wrap;html=1;arcSize=40;fontColor=#000000;fillColor=#ffffc0;strokeColor=#ff0000;align=center;" parent="1" vertex="1">
          <mxGeometry x="1284.75" y="1215" width="110.5" height="60" as="geometry" />
        </mxCell>
        <mxCell id="OWM73IptP0_KArOeakQF-117" value="&lt;b&gt;&lt;font style=&quot;font-size: 14px&quot;&gt;Display Price&lt;/font&gt;&lt;/b&gt;" style="rounded=1;whiteSpace=wrap;html=1;arcSize=40;fontColor=#000000;fillColor=#ffffc0;strokeColor=#ff0000;align=center;" parent="1" vertex="1">
          <mxGeometry x="1410" y="1220" width="110" height="50" as="geometry" />
        </mxCell>
        <mxCell id="OWM73IptP0_KArOeakQF-118" value="" style="shape=line;html=1;strokeWidth=6;strokeColor=#ff0000;" parent="1" vertex="1">
          <mxGeometry x="1300" y="1310" width="200" height="10" as="geometry" />
        </mxCell>
        <mxCell id="OWM73IptP0_KArOeakQF-119" value="" style="shape=line;html=1;strokeWidth=6;strokeColor=#ff0000;" parent="1" vertex="1">
          <mxGeometry x="1300" y="1185" width="200" height="10" as="geometry" />
        </mxCell>
        <mxCell id="OWM73IptP0_KArOeakQF-120" value="" style="edgeStyle=orthogonalEdgeStyle;html=1;verticalAlign=bottom;endArrow=open;endSize=8;strokeColor=#ff0000;rounded=0;exitX=1;exitY=0.5;exitDx=0;exitDy=0;strokeWidth=2;" parent="1" source="OWM73IptP0_KArOeakQF-115" target="OWM73IptP0_KArOeakQF-119" edge="1">
          <mxGeometry relative="1" as="geometry">
            <mxPoint x="1395" y="1090" as="targetPoint" />
            <mxPoint x="1394.5" y="1060" as="sourcePoint" />
            <Array as="points">
              <mxPoint x="1400" y="1150" />
            </Array>
          </mxGeometry>
        </mxCell>
        <mxCell id="OWM73IptP0_KArOeakQF-121" value="" style="edgeStyle=orthogonalEdgeStyle;html=1;verticalAlign=bottom;endArrow=open;endSize=8;strokeColor=#ff0000;rounded=0;exitX=0.069;exitY=0.633;exitDx=0;exitDy=0;exitPerimeter=0;entryX=0.463;entryY=0.019;entryDx=0;entryDy=0;entryPerimeter=0;strokeWidth=2;" parent="1" source="OWM73IptP0_KArOeakQF-119" target="OWM73IptP0_KArOeakQF-116" edge="1">
          <mxGeometry relative="1" as="geometry">
            <mxPoint x="1409.5" y="1335" as="targetPoint" />
            <mxPoint x="1409.5" y="1305" as="sourcePoint" />
            <Array as="points">
              <mxPoint x="1320" y="1191" />
              <mxPoint x="1320" y="1200" />
              <mxPoint x="1336" y="1200" />
            </Array>
          </mxGeometry>
        </mxCell>
        <mxCell id="OWM73IptP0_KArOeakQF-122" value="" style="edgeStyle=orthogonalEdgeStyle;html=1;verticalAlign=bottom;endArrow=open;endSize=8;strokeColor=#ff0000;rounded=0;exitX=0.922;exitY=0.717;exitDx=0;exitDy=0;exitPerimeter=0;entryX=0.5;entryY=0;entryDx=0;entryDy=0;strokeWidth=2;" parent="1" source="OWM73IptP0_KArOeakQF-119" target="OWM73IptP0_KArOeakQF-117" edge="1">
          <mxGeometry relative="1" as="geometry">
            <mxPoint x="1305.06" y="1230.76" as="targetPoint" />
            <mxPoint x="1323.3" y="1201.3299999999997" as="sourcePoint" />
            <Array as="points">
              <mxPoint x="1484" y="1200" />
              <mxPoint x="1464" y="1200" />
              <mxPoint x="1464" y="1220" />
            </Array>
          </mxGeometry>
        </mxCell>
        <mxCell id="OWM73IptP0_KArOeakQF-123" value="" style="edgeStyle=orthogonalEdgeStyle;html=1;verticalAlign=bottom;endArrow=open;endSize=8;strokeColor=#ff0000;rounded=0;exitX=0.458;exitY=1.03;exitDx=0;exitDy=0;exitPerimeter=0;entryX=0.146;entryY=0.492;entryDx=0;entryDy=0;entryPerimeter=0;strokeWidth=2;" parent="1" source="OWM73IptP0_KArOeakQF-116" target="OWM73IptP0_KArOeakQF-118" edge="1">
          <mxGeometry relative="1" as="geometry">
            <mxPoint x="1305.06" y="1230.76" as="targetPoint" />
            <mxPoint x="1323.3" y="1201.33" as="sourcePoint" />
            <Array as="points">
              <mxPoint x="1335" y="1290" />
              <mxPoint x="1329" y="1290" />
            </Array>
          </mxGeometry>
        </mxCell>
        <mxCell id="OWM73IptP0_KArOeakQF-124" value="" style="edgeStyle=orthogonalEdgeStyle;html=1;verticalAlign=bottom;endArrow=open;endSize=8;strokeColor=#ff0000;rounded=0;entryX=0.858;entryY=0.411;entryDx=0;entryDy=0;entryPerimeter=0;strokeWidth=2;" parent="1" target="OWM73IptP0_KArOeakQF-118" edge="1">
          <mxGeometry relative="1" as="geometry">
            <mxPoint x="1459.5" y="1285" as="targetPoint" />
            <mxPoint x="1470" y="1270" as="sourcePoint" />
            <Array as="points">
              <mxPoint x="1472" y="1270" />
              <mxPoint x="1472" y="1275" />
            </Array>
          </mxGeometry>
        </mxCell>
        <mxCell id="OWM73IptP0_KArOeakQF-126" value="&lt;font style=&quot;font-size: 15px&quot;&gt;&lt;b&gt;Click Confirm&lt;/b&gt;&lt;/font&gt;" style="rounded=1;whiteSpace=wrap;html=1;arcSize=40;fontColor=#000000;fillColor=#ffffc0;strokeColor=#ff0000;align=center;" parent="1" vertex="1">
          <mxGeometry x="200" y="1320" width="160" height="70" as="geometry" />
        </mxCell>
        <mxCell id="OWM73IptP0_KArOeakQF-127" value="&lt;font style=&quot;font-size: 15px&quot;&gt;&lt;b&gt;Directed to Payment Page&lt;/b&gt;&lt;/font&gt;" style="rounded=1;whiteSpace=wrap;html=1;arcSize=40;fontColor=#000000;fillColor=#ffffc0;strokeColor=#ff0000;align=center;" parent="1" vertex="1">
          <mxGeometry x="550" y="1390" width="310" height="70" as="geometry" />
        </mxCell>
        <mxCell id="OWM73IptP0_KArOeakQF-128" value="&lt;b&gt;&lt;font style=&quot;font-size: 15px&quot;&gt;Log Out&amp;nbsp;&lt;/font&gt;&lt;/b&gt;" style="rounded=1;whiteSpace=wrap;html=1;arcSize=40;fontColor=#000000;fillColor=#ffffc0;strokeColor=#ff0000;align=center;" parent="1" vertex="1">
          <mxGeometry x="175" y="1460" width="180" height="60" as="geometry" />
        </mxCell>
        <mxCell id="OWM73IptP0_KArOeakQF-129" value="" style="ellipse;html=1;shape=endState;fillColor=#000000;strokeColor=#ff0000;" parent="1" vertex="1">
          <mxGeometry x="245" y="1570" width="30" height="30" as="geometry" />
        </mxCell>
        <mxCell id="OWM73IptP0_KArOeakQF-130" value="" style="edgeStyle=orthogonalEdgeStyle;html=1;verticalAlign=bottom;endArrow=open;endSize=8;strokeColor=#ff0000;rounded=0;exitX=1;exitY=0.5;exitDx=0;exitDy=0;entryX=0;entryY=0.5;entryDx=0;entryDy=0;strokeWidth=2;" parent="1" source="OWM73IptP0_KArOeakQF-66" target="OWM73IptP0_KArOeakQF-68" edge="1">
          <mxGeometry relative="1" as="geometry">
            <mxPoint x="240" y="270" as="targetPoint" />
            <mxPoint x="240" y="240" as="sourcePoint" />
            <Array as="points">
              <mxPoint x="320" y="285" />
            </Array>
          </mxGeometry>
        </mxCell>
        <mxCell id="OWM73IptP0_KArOeakQF-131" value="Login Success" style="text;strokeColor=none;fillColor=none;align=left;verticalAlign=top;spacingLeft=4;spacingRight=4;overflow=hidden;rotatable=0;points=[[0,0.5],[1,0.5]];portConstraint=eastwest;fontSize=15;fontStyle=1" parent="1" vertex="1">
          <mxGeometry x="815" y="256" width="120" height="26" as="geometry" />
        </mxCell>
        <mxCell id="OWM73IptP0_KArOeakQF-132" value="" style="edgeStyle=orthogonalEdgeStyle;html=1;verticalAlign=bottom;endArrow=open;endSize=8;strokeColor=#ff0000;rounded=0;exitX=1;exitY=0.5;exitDx=0;exitDy=0;entryX=0;entryY=0.5;entryDx=0;entryDy=0;strokeWidth=2;" parent="1" source="OWM73IptP0_KArOeakQF-68" target="OWM73IptP0_KArOeakQF-70" edge="1">
          <mxGeometry relative="1" as="geometry">
            <mxPoint x="702.0000000000002" y="295" as="targetPoint" />
            <mxPoint x="310" y="295" as="sourcePoint" />
            <Array as="points" />
          </mxGeometry>
        </mxCell>
        <mxCell id="OWM73IptP0_KArOeakQF-133" value="Login Failed" style="text;strokeColor=none;fillColor=none;align=left;verticalAlign=top;spacingLeft=4;spacingRight=4;overflow=hidden;rotatable=0;points=[[0,0.5],[1,0.5]];portConstraint=eastwest;fontSize=15;fontStyle=1" parent="1" vertex="1">
          <mxGeometry x="752" y="334.5" width="100" height="26" as="geometry" />
        </mxCell>
        <mxCell id="OWM73IptP0_KArOeakQF-134" value="" style="edgeStyle=orthogonalEdgeStyle;html=1;verticalAlign=bottom;endArrow=open;endSize=8;strokeColor=#ff0000;rounded=0;entryX=0.5;entryY=0;entryDx=0;entryDy=0;exitX=0.5;exitY=1;exitDx=0;exitDy=0;strokeWidth=2;" parent="1" source="OWM73IptP0_KArOeakQF-68" target="OWM73IptP0_KArOeakQF-69" edge="1">
          <mxGeometry relative="1" as="geometry">
            <mxPoint x="240" y="270" as="targetPoint" />
            <mxPoint x="732" y="310" as="sourcePoint" />
          </mxGeometry>
        </mxCell>
        <mxCell id="OWM73IptP0_KArOeakQF-135" value="" style="edgeStyle=orthogonalEdgeStyle;html=1;verticalAlign=bottom;endArrow=open;endSize=8;strokeColor=#ff0000;rounded=0;exitX=0.5;exitY=1;exitDx=0;exitDy=0;entryX=1;entryY=0.5;entryDx=0;entryDy=0;strokeWidth=2;" parent="1" source="OWM73IptP0_KArOeakQF-70" target="OWM73IptP0_KArOeakQF-138" edge="1">
          <mxGeometry relative="1" as="geometry">
            <mxPoint x="310" y="530" as="targetPoint" />
            <mxPoint x="782.0000000000002" y="295" as="sourcePoint" />
            <Array as="points">
              <mxPoint x="1130" y="420" />
              <mxPoint x="1040" y="420" />
              <mxPoint x="1040" y="455" />
            </Array>
          </mxGeometry>
        </mxCell>
        <mxCell id="OWM73IptP0_KArOeakQF-138" value="&lt;b&gt;&lt;font style=&quot;font-size: 15px&quot;&gt;Select Insurance Page&lt;/font&gt;&lt;/b&gt;" style="rounded=1;whiteSpace=wrap;html=1;arcSize=40;fontColor=#000000;fillColor=#ffffc0;strokeColor=#ff0000;" parent="1" vertex="1">
          <mxGeometry x="145" y="430" width="195" height="50" as="geometry" />
        </mxCell>
        <mxCell id="OWM73IptP0_KArOeakQF-139" value="" style="edgeStyle=orthogonalEdgeStyle;html=1;verticalAlign=bottom;endArrow=open;endSize=8;strokeColor=#ff0000;rounded=0;exitX=0.5;exitY=1;exitDx=0;exitDy=0;strokeWidth=2;entryX=0.5;entryY=0;entryDx=0;entryDy=0;" parent="1" source="OWM73IptP0_KArOeakQF-138" target="OWM73IptP0_KArOeakQF-91" edge="1">
          <mxGeometry relative="1" as="geometry">
            <mxPoint x="742" y="380" as="targetPoint" />
            <mxPoint x="742" y="315.0000000000002" as="sourcePoint" />
            <Array as="points">
              <mxPoint x="242" y="540" />
              <mxPoint x="285" y="540" />
            </Array>
          </mxGeometry>
        </mxCell>
        <mxCell id="OWM73IptP0_KArOeakQF-140" value="" style="edgeStyle=orthogonalEdgeStyle;html=1;verticalAlign=bottom;endArrow=open;endSize=8;strokeColor=#ff0000;rounded=0;exitX=1;exitY=0.5;exitDx=0;exitDy=0;entryX=0.5;entryY=0;entryDx=0;entryDy=0;strokeWidth=2;" parent="1" source="OWM73IptP0_KArOeakQF-105" target="OWM73IptP0_KArOeakQF-113" edge="1">
          <mxGeometry relative="1" as="geometry">
            <mxPoint x="280.0526315789475" y="620.0263157894738" as="targetPoint" />
            <mxPoint x="225" y="490" as="sourcePoint" />
            <Array as="points">
              <mxPoint x="750" y="920" />
              <mxPoint x="750" y="900" />
              <mxPoint x="1110" y="900" />
            </Array>
          </mxGeometry>
        </mxCell>
        <mxCell id="OWM73IptP0_KArOeakQF-141" value="" style="edgeStyle=orthogonalEdgeStyle;html=1;verticalAlign=bottom;endArrow=open;endSize=8;strokeColor=#ff0000;rounded=0;exitX=1;exitY=0.5;exitDx=0;exitDy=0;strokeWidth=2;" parent="1" source="OWM73IptP0_KArOeakQF-113" edge="1">
          <mxGeometry relative="1" as="geometry">
            <mxPoint x="1400" y="660" as="targetPoint" />
            <mxPoint x="1151" y="967.44" as="sourcePoint" />
            <Array as="points">
              <mxPoint x="1400" y="955" />
            </Array>
          </mxGeometry>
        </mxCell>
        <mxCell id="OWM73IptP0_KArOeakQF-142" value="Invalid Insurance" style="text;strokeColor=none;fillColor=none;align=left;verticalAlign=top;spacingLeft=4;spacingRight=4;overflow=hidden;rotatable=0;points=[[0,0.5],[1,0.5]];portConstraint=eastwest;fontSize=15;fontStyle=1" parent="1" vertex="1">
          <mxGeometry x="1275" y="928" width="130" height="26" as="geometry" />
        </mxCell>
        <mxCell id="OWM73IptP0_KArOeakQF-143" value="" style="edgeStyle=orthogonalEdgeStyle;html=1;verticalAlign=bottom;endArrow=open;endSize=8;strokeColor=#ff0000;rounded=0;exitX=0.5;exitY=1;exitDx=0;exitDy=0;entryX=0.5;entryY=0;entryDx=0;entryDy=0;strokeWidth=2;" parent="1" source="OWM73IptP0_KArOeakQF-114" target="OWM73IptP0_KArOeakQF-115" edge="1">
          <mxGeometry relative="1" as="geometry">
            <mxPoint x="1340.0000000000005" y="1109" as="targetPoint" />
            <mxPoint x="1070" y="1068" as="sourcePoint" />
            <Array as="points" />
          </mxGeometry>
        </mxCell>
        <mxCell id="OWM73IptP0_KArOeakQF-144" value="Valid Insurance" style="text;strokeColor=none;fillColor=none;align=left;verticalAlign=top;spacingLeft=4;spacingRight=4;overflow=hidden;rotatable=0;points=[[0,0.5],[1,0.5]];portConstraint=eastwest;fontSize=15;fontStyle=1" parent="1" vertex="1">
          <mxGeometry x="1110" y="1000" width="120" height="26" as="geometry" />
        </mxCell>
        <mxCell id="OWM73IptP0_KArOeakQF-146" value="" style="edgeStyle=orthogonalEdgeStyle;html=1;verticalAlign=bottom;endArrow=open;endSize=8;strokeColor=#ff0000;rounded=0;exitX=0.5;exitY=1;exitDx=0;exitDy=0;strokeWidth=2;" parent="1" source="OWM73IptP0_KArOeakQF-113" target="OWM73IptP0_KArOeakQF-114" edge="1">
          <mxGeometry relative="1" as="geometry">
            <mxPoint x="285.0000000000002" y="900" as="targetPoint" />
            <mxPoint x="282.4000000000001" y="858.5700000000002" as="sourcePoint" />
            <Array as="points">
              <mxPoint x="1110" y="1030" />
            </Array>
          </mxGeometry>
        </mxCell>
        <mxCell id="OWM73IptP0_KArOeakQF-147" value="" style="edgeStyle=orthogonalEdgeStyle;html=1;verticalAlign=bottom;endArrow=open;endSize=8;strokeColor=#ff0000;rounded=0;exitX=0.51;exitY=0.379;exitDx=0;exitDy=0;exitPerimeter=0;entryX=0.5;entryY=0;entryDx=0;entryDy=0;strokeWidth=2;" parent="1" source="OWM73IptP0_KArOeakQF-118" target="OWM73IptP0_KArOeakQF-126" edge="1">
          <mxGeometry relative="1" as="geometry">
            <mxPoint x="1405.0000000000005" y="1195" as="targetPoint" />
            <mxPoint x="360" y="1155" as="sourcePoint" />
            <Array as="points">
              <mxPoint x="1402" y="1340" />
              <mxPoint x="410" y="1340" />
              <mxPoint x="410" y="1300" />
              <mxPoint x="280" y="1300" />
            </Array>
          </mxGeometry>
        </mxCell>
        <mxCell id="OWM73IptP0_KArOeakQF-148" value="" style="edgeStyle=orthogonalEdgeStyle;html=1;verticalAlign=bottom;endArrow=open;endSize=8;strokeColor=#ff0000;rounded=0;exitX=0.5;exitY=1;exitDx=0;exitDy=0;entryX=0;entryY=0.5;entryDx=0;entryDy=0;strokeWidth=2;" parent="1" source="OWM73IptP0_KArOeakQF-126" target="OWM73IptP0_KArOeakQF-127" edge="1">
          <mxGeometry relative="1" as="geometry">
            <mxPoint x="285.0000000000002" y="900" as="targetPoint" />
            <mxPoint x="282.4000000000001" y="858.5700000000002" as="sourcePoint" />
            <Array as="points">
              <mxPoint x="260" y="1425" />
            </Array>
          </mxGeometry>
        </mxCell>
        <mxCell id="OWM73IptP0_KArOeakQF-149" value="" style="edgeStyle=orthogonalEdgeStyle;html=1;verticalAlign=bottom;endArrow=open;endSize=8;strokeColor=#ff0000;rounded=0;strokeWidth=2;" parent="1" edge="1">
          <mxGeometry relative="1" as="geometry">
            <mxPoint x="350" y="1490" as="targetPoint" />
            <mxPoint x="690" y="1460" as="sourcePoint" />
            <Array as="points">
              <mxPoint x="690" y="1460" />
              <mxPoint x="702" y="1460" />
              <mxPoint x="702" y="1490" />
            </Array>
          </mxGeometry>
        </mxCell>
        <mxCell id="OWM73IptP0_KArOeakQF-150" value="" style="edgeStyle=orthogonalEdgeStyle;html=1;verticalAlign=bottom;endArrow=open;endSize=8;strokeColor=#ff0000;rounded=0;exitX=0.5;exitY=1;exitDx=0;exitDy=0;strokeWidth=2;" parent="1" source="OWM73IptP0_KArOeakQF-128" target="OWM73IptP0_KArOeakQF-129" edge="1">
          <mxGeometry relative="1" as="geometry">
            <mxPoint x="330" y="1500" as="targetPoint" />
            <mxPoint x="722.0000000000005" y="1450" as="sourcePoint" />
            <Array as="points">
              <mxPoint x="260" y="1540" />
              <mxPoint x="260" y="1540" />
            </Array>
          </mxGeometry>
        </mxCell>
        <mxCell id="72NSx7EzI2TIOY9EAnDR-1" value="" style="edgeStyle=orthogonalEdgeStyle;html=1;verticalAlign=bottom;endArrow=open;endSize=8;strokeColor=#ff0000;rounded=0;exitX=0;exitY=0.5;exitDx=0;exitDy=0;strokeWidth=2;" edge="1" parent="1" source="OWM73IptP0_KArOeakQF-69" target="OWM73IptP0_KArOeakQF-66">
          <mxGeometry relative="1" as="geometry">
            <mxPoint x="742" y="380" as="targetPoint" />
            <mxPoint x="742" y="315" as="sourcePoint" />
          </mxGeometry>
        </mxCell>
      </root>
    </mxGraphModel>
  </diagram>
</mxfile>
